<svg xmlns="http://www.w3.org/2000/svg" id="b20f7872-8f3c-4c51-86a0-b95932fd0495" data-name="Layer 1" width="84.7782" height="111.5978" viewBox="0 0 84.7782 111.5978"><path d="M75.7554,73.9508h-2V2H15.0194V73.9508H2l42.3889,39.647,0,0,0,0,42.3889-39.647ZM44.3891,110.8592,7.0662,75.9508h7.9532a2,2,0,0,0,2-2V4h54.736V73.9508a2,2,0,0,0,2,2H81.712Z" transform="translate(-2 -2)"></path><rect x="22.9963" y="44.2263" width="44.5084" height="2.0004" transform="translate(-18.6156 59.5248) rotate(-59.7437)"></rect><path d="M41.1807,32.7085a7.2085,7.2085,0,1,0-7.2085,7.2085A7.2169,7.2169,0,0,0,41.1807,32.7085Zm-12.417,0a5.2085,5.2085,0,1,1,5.2085,5.2085A5.2142,5.2142,0,0,1,28.7637,32.7085Z" transform="translate(-2 -2)"></path><path d="M54.8008,52.7305a7.2085,7.2085,0,1,0,7.208,7.209A7.2174,7.2174,0,0,0,54.8008,52.7305Zm0,12.417a5.2085,5.2085,0,1,1,5.208-5.208A5.2143,5.2143,0,0,1,54.8008,65.1475Z" transform="translate(-2 -2)"></path></svg>