<svg xmlns="http://www.w3.org/2000/svg" id="eb54ca19-fcca-4984-a14d-ef08b3c6885e" data-name="Layer 1" width="115.427" height="108.709" viewBox="0 0 115.427 108.709"><defs><style>.ac325d42-973e-420a-b7f3-f0252246264b{fill-rule:evenodd;}</style></defs><path class="ac325d42-973e-420a-b7f3-f0252246264b" d="M65.22,46.5635c4.0081-4.0247,8.054-10.5206,8.054-20.4978,0-6.5309-4.0849-12.5614-8.527-17.1381A54.6674,54.6674,0,0,0,58.72,3.6021c-.65-.4947-1.2121-.9-1.6528-1.2081-.4367.2937-.9917.6793-1.6317,1.1508a51.0007,51.0007,0,0,0-6.0119,5.19c-4.42,4.4878-8.5169,10.52-8.5169,17.3313,0,8.7743,4.3949,15.2721,8.936,19.6555a39.6167,39.6167,0,0,0,6.2447,4.8973c.809.5125,1.486.8988,1.9679,1.16.4122-.2028.9669-.4944,1.621-.8838A28.41,28.41,0,0,0,65.22,46.5635ZM38.9062,26.0657c0,16.37,14.1647,25.2639,18.0938,27.416V91.7144C25.8992,91.8448.959,95.5984.959,100.21c0,4.694,25.8392,8.499,57.7135,8.499s57.7135-3.805,57.7135-8.499c0-4.6779-25.6624-8.473-57.386-8.4989V53.5427c3.6823-1.8268,16.2737-9.3954,16.2737-27.477C75.2737,11.4038,57.09,0,57.09,0S38.9062,10.8607,38.9062,26.0657ZM57,93.7145a289.1031,289.1031,0,0,0-38.8457,2.4644A69.9406,69.9406,0,0,0,6.152,98.7905,11.738,11.738,0,0,0,3.3,100.12c-.0444.032-.084.062-.1195.09.0355.028.0751.057.1195.089a11.6966,11.6966,0,0,0,2.8522,1.33,69.8766,69.8766,0,0,0,12.0023,2.612A289.1613,289.1613,0,0,0,57,106.705Zm2,12.9945V93.7111a292.68,292.68,0,0,1,40.1908,2.4678,69.9346,69.9346,0,0,1,12.0022,2.6116,11.73,11.73,0,0,1,2.852,1.33c.045.032.084.062.12.09-.036.028-.075.057-.12.089a11.6886,11.6886,0,0,1-2.852,1.33,69.8707,69.8707,0,0,1-12.0022,2.612A292.7559,292.7559,0,0,1,59,106.709ZM50.1263,68.2721c.177-5.7941-1.3658-13.3332-8.3936-20.361-4.6181-4.6181-11.7707-5.9939-18.148-6.089a54.6671,54.6671,0,0,0-8.0276.4961c-.8092.11-1.4935.2207-2.0229.3145-.1011.5165-.2209,1.1816-.34,1.9676a51.0139,51.0139,0,0,0-.5815,7.9206c.0481,6.2987,1.4166,13.4611,6.2329,18.2774A27.308,27.308,0,0,0,38.692,78.615a37.2044,37.2044,0,0,0,7.5891-.7951c.8866-.1868,1.6-.3726,2.1016-.5149.1718-.4534.3943-1.091.6229-1.8841A29.2734,29.2734,0,0,0,50.1263,68.2721Zm-.254,10.6658S30.8707,85.652,17.4312,72.2125C6.68,61.4609,11.8578,40.9234,11.8578,40.9234s20.9215-4.7941,31.2891,5.5734C58.1223,61.4722,49.8723,78.9379,49.8723,78.9379ZM73.738,47.9111c-7.0278,7.0278-8.5706,14.5669-8.3936,20.361a29.2734,29.2734,0,0,0,1.1207,7.1488c.2286.7931.4511,1.4307.6229,1.8841.5014.1423,1.215.3281,2.1016.5149a37.2044,37.2044,0,0,0,7.5891.7951,27.308,27.308,0,0,0,19.8465-7.8167C101.442,65.982,102.81,58.82,102.858,52.5209a50.9969,50.9969,0,0,0-.581-7.9206c-.12-.786-.239-1.4511-.341-1.9676-.529-.0938-1.213-.2049-2.0224-.3145a54.6671,54.6671,0,0,0-8.0276-.4961C85.5087,41.9172,78.3561,43.293,73.738,47.9111ZM98.04,72.2125C84.6,85.652,65.5984,78.9379,65.5984,78.9379s-8.25-17.4657,6.7254-32.4411c10.3676-10.3675,31.2892-5.5734,31.2892-5.5734S108.791,61.4609,98.04,72.2125ZM114.443,99.9411l-.008.0124Zm-111.5406,0,.0076.0124Zm.0013.5349-.0013.003.0076-.013Zm111.5313-.01.008.013Z" transform="translate(-0.959)"></path></svg>