<svg xmlns="http://www.w3.org/2000/svg" id="e1f38227-c7dd-4785-a0b5-91c18da75817" data-name="Layer 1" width="135.26" height="66.39" viewBox="0 0 135.26 66.39"><path d="M26.52,0V7.86H0v2H26.52V23.77H0v2H26.52V39.68H0v2H26.52v8.51H45.11a17.1144,17.1144,0,0,0,34.18,0h9.37a17.12,17.12,0,0,0,34.19,0h12.41V0ZM62.2,64.39a15.1224,15.1224,0,0,1-15.08-14.2c-.02-.3-.03-.61-.03-.91,0-.37.01-.73.04-1.09a15.1085,15.1085,0,0,1,30.14,0c.03.36.04.72.04,1.09,0,.3-.01.61-.03.91A15.1224,15.1224,0,0,1,62.2,64.39Zm43.55,0a15.1224,15.1224,0,0,1-15.08-14.2c-.02-.3-.03-.61-.03-.91,0-.37.01-.73.04-1.09a15.1139,15.1139,0,0,1,30.15,0c.03.36.04.72.04,1.09,0,.3-.01.61-.03.91A15.1316,15.1316,0,0,1,105.75,64.39Zm27.51-16.2H122.83a17.1091,17.1091,0,0,0-34.15,0H79.27a17.1037,17.1037,0,0,0-34.14,0H28.52V2H133.26Z"></path></svg>