<svg xmlns="http://www.w3.org/2000/svg" xmlns:xlink="http://www.w3.org/1999/xlink" id="Layer_1" x="0px" y="0px" viewBox="0 0 77 95" style="enable-background:new 0 0 77 95;" xml:space="preserve"><g>	<path d="M75.4,15.9L75.3,15l-0.9,0C63.3,15.3,46.3,6.1,38.8,1.2l-0.6-0.4l-0.6,0.5C31.8,6,10,15.2,1.8,15l-0.9,0l-0.1,0.9  c-5.9,56.1,21.8,75.8,37.3,78.4l0.2,0l0.2,0C75.4,88.3,78.8,40.4,75.4,15.9z M38.3,92.3C23.5,89.7-2.6,70.7,2.7,17  c9-0.4,29-8.8,35.6-13.8C46,8.2,62.2,16.8,73.5,17C76.6,41.1,73.2,86.5,38.3,92.3z"></path>	<path d="M38,20.4c-13.5,0-24.5,11-24.5,24.5s11,24.5,24.5,24.5s24.5-11,24.5-24.5S51.5,20.4,38,20.4z M38,67.4  c-12.4,0-22.5-10.1-22.5-22.5c0-12.4,10.1-22.5,22.5-22.5c12.4,0,22.5,10.1,22.5,22.5C60.5,57.3,50.4,67.4,38,67.4z"></path>	<polygon points="33.9,51.8 29.2,47.1 27.8,48.5 33.9,54.7 48.8,39.7 47.3,38.3  "></polygon></g></svg>