<svg xmlns="http://www.w3.org/2000/svg" id="adff8b1e-647a-40a2-939b-33d64225b7a5" data-name="Layer 1" width="123" height="124" viewBox="0 0 123 124"><path d="M123.5,0H.5V109h48v15h30V109h45Zm-47,122h-26V72.93a13,13,0,0,1,26,0V122Zm-13-64a14.9843,14.9843,0,0,0-15,14.93V78H20.98a8.4843,8.4843,0,0,1-8.48-8.48V47.48A8.4843,8.4843,0,0,1,20.98,39h84.04a8.4843,8.4843,0,0,1,8.48,8.48V69.52A8.4843,8.4843,0,0,1,105.02,78H78.5V72.93A14.9843,14.9843,0,0,0,63.5,58Zm58,49h-43V80h26.52A10.49,10.49,0,0,0,115.5,69.52V47.48A10.49,10.49,0,0,0,105.02,37H20.98A10.49,10.49,0,0,0,10.5,47.48V69.52A10.49,10.49,0,0,0,20.98,80H48.5v27H2.5V2h119Z" transform="translate(-0.5)"></path></svg>